<svg width="435" height="374" viewBox="0 0 435 374" fill="none" xmlns="http://www.w3.org/2000/svg">
<path d="M13.5858 373.414C14.3668 374.195 15.6332 374.195 16.4142 373.414L29.1421 360.686C29.9232 359.905 29.9232 358.639 29.1421 357.858C28.3611 357.077 27.0948 357.077 26.3137 357.858L15 369.171L3.68629 357.858C2.90524 357.077 1.63891 357.077 0.857864 357.858C0.0768156 358.639 0.0768156 359.905 0.857864 360.686L13.5858 373.414ZM434.569 0.501085C364.369 -1.92538 259.072 13.6975 171.253 68.541C83.3125 123.46 13 217.664 13 372H17C17 219.136 86.5209 126.173 173.372 71.9338C260.344 17.6189 364.798 2.09183 434.431 4.4987L434.569 0.501085Z" fill="url(#paint0_radial_15_764)"/>
<defs>
<radialGradient id="paint0_radial_15_764" cx="0" cy="0" r="1" gradientUnits="userSpaceOnUse" gradientTransform="translate(138.842 -77.5673) rotate(63.9789) scale(607.816 2439.18)">
<stop stop-color="#FF0E0E"/>
<stop offset="1" stop-color="#AD00FF"/>
</radialGradient>
</defs>
</svg>
