<svg width="458" height="320" viewBox="0 0 458 320" fill="none" xmlns="http://www.w3.org/2000/svg">
<path d="M441.086 319.414C441.867 320.195 443.133 320.195 443.914 319.414L456.642 306.686C457.423 305.905 457.423 304.639 456.642 303.858C455.861 303.077 454.595 303.077 453.814 303.858L442.5 315.172L431.186 303.858C430.405 303.077 429.139 303.077 428.358 303.858C427.577 304.639 427.577 305.905 428.358 306.686L441.086 319.414ZM2.03123 21.9282C75.2936 1.74371 185.052 -7.56996 276.367 29.8135C321.979 48.4865 362.973 78.8001 392.579 125.236C422.191 171.681 440.5 234.393 440.5 318H444.5C444.5 233.807 426.059 170.307 395.952 123.086C365.84 75.8563 324.146 45.0511 277.883 26.1117C185.448 -11.7299 74.7064 -2.24357 0.968773 18.0719L2.03123 21.9282Z" fill="url(#paint0_radial_15_763)"/>
<defs>
<radialGradient id="paint0_radial_15_763" cx="0" cy="0" r="1" gradientUnits="userSpaceOnUse" gradientTransform="translate(131.689 -65.8874) rotate(58.9935) scale(544.161 2445.7)">
<stop stop-color="#FF0E0E"/>
<stop offset="1" stop-color="#AD00FF"/>
</radialGradient>
</defs>
</svg>
