<svg width="390" height="101" viewBox="0 0 390 101" fill="none" xmlns="http://www.w3.org/2000/svg">
<g clip-path="url(#clip0_7_5961)">
<path d="M50.5723 7.64387L42.7447 5.54643L36.1482 30.1649L30.1928 7.93918L22.365 10.0366L28.7994 34.0499L12.7727 18.0232L7.04243 23.7535L24.6217 41.3329L2.72951 35.4669L0.63208 43.2945L24.5521 49.7039C24.2782 48.5227 24.1333 47.2919 24.1333 46.0273C24.1333 37.076 31.3897 29.8196 40.3411 29.8196C49.2924 29.8196 56.5488 37.076 56.5488 46.0273C56.5488 47.2838 56.4057 48.507 56.1352 49.6812L77.8741 55.5061L79.9714 47.6784L55.9563 41.2436L77.85 35.3771L75.7525 27.5495L51.7384 33.984L67.765 17.9574L62.0347 12.2271L44.6993 29.5626L50.5723 7.64387Z" fill="#FF4405"/>
<path d="M56.1124 49.7724C55.4413 52.6097 54.0244 55.1586 52.0803 57.2008L67.8291 72.9498L73.5594 67.2195L56.1124 49.7724Z" fill="#FF4405"/>
<path d="M51.9213 57.3654C49.9538 59.375 47.4674 60.8746 44.679 61.6474L50.4097 83.0346L58.2374 80.9371L51.9213 57.3654Z" fill="#FF4405"/>
<path d="M44.3867 61.7257C43.093 62.0582 41.7371 62.235 40.3397 62.235C38.8426 62.235 37.3929 62.032 36.0167 61.652L30.2808 83.0587L38.1084 85.156L44.3867 61.7257Z" fill="#FF4405"/>
<path d="M35.7399 61.5731C32.9942 60.7619 30.552 59.2431 28.6246 57.2278L12.837 73.0154L18.5673 78.7457L35.7399 61.5731Z" fill="#FF4405"/>
<path d="M28.4945 57.0883C26.6002 55.0602 25.2204 52.5453 24.5636 49.7518L2.75376 55.5958L4.85118 63.4234L28.4945 57.0883Z" fill="#FF4405"/>
</g>
<path d="M154.795 75V66.84H126.806V20.328H117.586V75H154.795ZM170.46 29.6304V20.328H161.321V29.6304H170.46ZM170.46 75V35.2608H161.321V75H170.46ZM197.345 75.816C207.3 75.816 213.583 70.1856 215.705 62.6784L207.463 58.5984C206.565 64.3104 203.709 68.1456 197.508 68.1456C191.225 68.1456 187.389 63.4944 187.389 55.1712C187.389 46.7664 191.225 42.1152 197.508 42.1152C203.628 42.1152 206.565 45.9504 207.463 51.6624L215.705 47.5824C213.583 40.0752 207.3 34.4448 197.345 34.4448C185.513 34.4448 178.087 42.768 178.087 55.1712C178.087 67.4928 185.513 75.816 197.345 75.816ZM239.668 75.816C248.481 75.816 253.867 71.8176 256.886 67.248L251.255 61.3728C249.787 64.7184 246.686 68.3088 239.75 68.3088C233.467 68.3088 229.305 64.4736 228.815 57.3744H257.212C257.375 56.5584 257.539 54.8448 257.539 53.376C257.539 42.36 250.929 34.4448 239.015 34.4448C227.836 34.4448 220.084 42.6864 220.084 55.1712C220.084 67.5744 227.836 75.816 239.668 75.816ZM239.015 41.7888C245.054 41.7888 248.644 45.216 249.297 51.4992H228.897C229.631 45.0528 233.385 41.7888 239.015 41.7888ZM274.691 75V52.7232C274.691 46.1952 276.976 41.8704 283.667 41.8704C289.787 41.8704 291.419 45.216 291.419 50.112V75H300.64V47.3376C300.64 39.096 295.907 34.4448 288.155 34.4448C280.24 34.4448 276.16 39.8304 274.691 46.1136V35.2608H265.552V75H274.691ZM319.157 75V62.2704L325.114 56.3952L336.701 75H347.39L331.315 50.928L347.39 35.2608H336.211L325.358 45.8688L318.83 53.0496L319.157 45.3792V20.328H310.018V75H319.157ZM360.258 75.816C368.581 75.816 372.417 69.6144 373.641 64.392V67.3296C373.641 73.0416 376.986 75 381.229 75H386.86V67.1664H384.33C382.861 67.1664 382.209 66.5952 382.209 64.8V49.8672C382.209 40.0752 376.66 34.4448 366.786 34.4448C357.973 34.4448 351.772 39.0144 348.671 43.2576L354.138 49.7856C356.423 45.624 360.585 42.5232 365.889 42.5232C371.356 42.5232 373.151 45.216 373.477 49.2144L360.177 54.8448C353.73 57.3744 349.813 60.8016 349.813 66.432C349.813 72.144 353.73 75.816 360.258 75.816ZM358.626 65.0448C358.626 63.0048 360.013 61.6176 363.441 60.0672L373.641 55.4976V59.7408C373.641 65.1264 369.561 68.7168 363.522 68.7168C360.177 68.7168 358.626 67.3296 358.626 65.0448Z" fill="white"/>
<defs>
<clipPath id="clip0_7_5961">
<rect width="81.6" height="81.6" fill="white" transform="translate(0 3.70909)"/>
</clipPath>
</defs>
</svg>
